<svg width="38" height="42" viewBox="0 0 38 42" fill="none" xmlns="http://www.w3.org/2000/svg">
<path d="M1 9H5H37" stroke="#DC1637" stroke-width="2" stroke-linecap="round" stroke-linejoin="round"/>
<path d="M11 9V5C11 3.93913 11.4214 2.92172 12.1716 2.17157C12.9217 1.42143 13.9391 1 15 1H23C24.0609 1 25.0783 1.42143 25.8284 2.17157C26.5786 2.92172 27 3.93913 27 5V9M33 9V37C33 38.0609 32.5786 39.0783 31.8284 39.8284C31.0783 40.5786 30.0609 41 29 41H9C7.93913 41 6.92172 40.5786 6.17157 39.8284C5.42143 39.0783 5 38.0609 5 37V9H33Z" stroke="#DC1637" stroke-width="2" stroke-linecap="round" stroke-linejoin="round"/>
</svg>
