<svg width="72" height="20" viewBox="0 0 72 20" fill="none" xmlns="http://www.w3.org/2000/svg">
<path d="M6.525 19L0.425 1.8H6.325L9.775 13.3H9.875L13.35 1.8H19L12.925 19H6.525Z" fill="#DC1637"/>
<path d="M26.708 19.3C24.5913 19.3 23.0163 18.7417 21.983 17.625C20.9497 16.5083 20.433 14.775 20.433 12.425C20.433 10.075 20.9497 8.34167 21.983 7.225C23.0163 6.10833 24.5913 5.55 26.708 5.55C28.608 5.55 30.0247 6.05833 30.958 7.075C31.908 8.075 32.383 9.69167 32.383 11.925V13.025H22.708C22.7913 14.5417 23.1497 15.6667 23.783 16.4C24.433 17.1167 25.408 17.475 26.708 17.475C27.758 17.475 28.608 17.2333 29.258 16.75C29.908 16.2667 30.233 15.525 30.233 14.525H32.383C32.383 16.0583 31.8497 17.2417 30.783 18.075C29.733 18.8917 28.3747 19.3 26.708 19.3ZM30.083 11.2C30.083 8.65 28.958 7.375 26.708 7.375C25.458 7.375 24.5163 7.675 23.883 8.275C23.2663 8.875 22.8913 9.85 22.758 11.2H30.083ZM35.0246 5.85H36.6996L36.9496 7.825H37.0996C37.3496 7.175 37.7246 6.63333 38.2246 6.2C38.7246 5.76667 39.3829 5.55 40.1996 5.55C40.6496 5.55 41.0413 5.61667 41.3746 5.75V7.875H40.4496C39.5163 7.875 38.7413 8.15 38.1246 8.7C37.5246 9.23333 37.2246 10.075 37.2246 11.225V19H35.0246V5.85ZM42.2748 17.825L49.8998 7.675H42.7998V5.85H53.1248V7L45.4748 17.175H53.5498V19H42.2748V17.825ZM61.4248 19.3C59.3081 19.3 57.7331 18.7417 56.6998 17.625C55.6665 16.5083 55.1498 14.775 55.1498 12.425C55.1498 10.075 55.6665 8.34167 56.6998 7.225C57.7331 6.10833 59.3081 5.55 61.4248 5.55C63.3248 5.55 64.7415 6.05833 65.6748 7.075C66.6248 8.075 67.0998 9.69167 67.0998 11.925V13.025H57.4248C57.5081 14.5417 57.8665 15.6667 58.4998 16.4C59.1498 17.1167 60.1248 17.475 61.4248 17.475C62.4748 17.475 63.3248 17.2333 63.9748 16.75C64.6248 16.2667 64.9498 15.525 64.9498 14.525H67.0998C67.0998 16.0583 66.5665 17.2417 65.4998 18.075C64.4498 18.8917 63.0915 19.3 61.4248 19.3ZM64.7998 11.2C64.7998 8.65 63.6748 7.375 61.4248 7.375C60.1748 7.375 59.2331 7.675 58.5998 8.275C57.9831 8.875 57.6081 9.85 57.4748 11.2H64.7998ZM69.7414 0.924999H71.9414V19H69.7414V0.924999Z" fill="#F4F5F6"/>
</svg>
